<?xml version="1.0" encoding="UTF-8"?>
<svg id="Layer_1" xmlns="http://www.w3.org/2000/svg" version="1.1" viewBox="0 0 160 160">
  <!-- Generator: Adobe Illustrator 29.7.1, SVG Export Plug-In . SVG Version: 2.1.1 Build 8)  -->
  <defs>
    <style>
      .st0 {
        fill: #8cabec;
      }

      .st0, .st1, .st2, .st3, .st4, .st5, .st6, .st7, .st8 {
        stroke: #000;
        stroke-miterlimit: 10;
      }

      .st1 {
        fill: #50abe0;
      }

      .st2 {
        fill: #28abd8;
      }

      .st3 {
        fill: #78abe8;
      }

      .st4 {
        fill: #64abe4;
      }

      .st9 {
        display: none;
        fill: #fff;
      }

      .st5 {
        fill: #b4abe2;
      }

      .st6 {
        fill: #29abe2;
      }

      .st7 {
        fill: #3cabdc;
      }

      .st8 {
        fill: #a0abf0;
      }

      .st10 {
        font-family: Constantia, Constantia;
        font-size: 48.99px;
      }
    </style>
  </defs>
  <rect class="st2" x="13.07" y="14.04" width="84.56" height="126.66" rx="4.68" ry="4.68"/>
  <rect class="st7" x="16.8" y="14.04" width="84.56" height="126.66" rx="4.68" ry="4.68"/>
  <rect class="st1" x="20.53" y="14.04" width="84.56" height="126.66" rx="4.68" ry="4.68"/>
  <rect class="st4" x="24.26" y="14.04" width="84.56" height="126.66" rx="4.68" ry="4.68"/>
  <path class="st3" d="M114.56,26.96c-1.61-1.21-2.64-2.99-2.45-4.88-.01-.09,0-.18-.01-.27L49.23,7.65c-3.13-.71-6.25,1.21-6.97,4.27L15.87,124.26c-.72,3.07,1.23,6.12,4.36,6.83l71.07,16.01c3.13.71,6.25-1.21,6.97-4.27l25.79-109.8c-3.52-1.19-6.86-4.06-9.51-6.06Z"/>
  <rect class="st9" x="116" y="15" width="17" height="29"/>
  <path class="st0" d="M126.09,60.72c2.6-6.83,4.54-13.7,6.06-20.84.07-.34.2-.65.35-.94L77.65,5.85c-2.73-1.65-6.32-.82-8,1.86L7.92,105.86c-1.68,2.68-.83,6.19,1.9,7.84l62.09,37.46c2.73,1.65,6.32.82,8-1.86l47.42-75.39c-1.87-4.34-3.22-7.97-1.24-13.17Z"/>
  <rect class="st9" x="137.5" y="32.5" width="10" height="29"/>
  <path class="st8" d="M132.99,89.22c-.58-7.09,3.04-14.13,5.61-20.54.23-.58.54-1.07.89-1.5-.14-1.72-.09-3.43.25-5.13.38-1.91,1.6-2.97,3.07-3.34l-28.42-41.49c-1.79-2.61-5.4-3.31-8.07-1.56L8.58,79.87c-2.67,1.75-3.38,5.29-1.59,7.9l40.62,59.32c1.79,2.61,5.4,3.31,8.07,1.56l72.76-47.8c.88-3.98,2.64-7.74,4.55-11.63Z"/>
  <path class="st5" d="M131.03,116.43c.03-.91.12-1.82.27-2.71-.18-.19-.34-.38-.49-.6-1.28-.42-2.31-1.46-2.63-3.32-1.31-7.68,1.54-13.92,4.81-20.58-.58-7.09,3.04-14.13,5.61-20.54.23-.58.54-1.07.89-1.5-.14-1.72-.09-3.43.25-5.13.46-2.3,2.12-3.37,3.97-3.49l-5.92-22.92c-.79-3.05-3.95-4.9-7.07-4.12L16.63,59.81c-3.11.77-5,3.87-4.21,6.92l17.9,69.24c.79,3.05,3.95,4.9,7.07,4.12l93.67-23.23c0-.15-.03-.28-.02-.44Z"/>
  <rect class="st6" x="43.88" y="26.02" width="82.82" height="129.33" rx="4.68" ry="4.68" transform="translate(175.97 5.39) rotate(90)"/>
  <text class="st10" transform="translate(30.53 107.31)"><tspan x="0" y="0">Kādo</tspan></text>
</svg>