<?xml version="1.0" encoding="UTF-8"?>
<svg id="Layer_1" data-name="Layer 1" xmlns="http://www.w3.org/2000/svg" viewBox="0 0 151 148">
  <defs>
    <style>
      .cls-1 {
        letter-spacing: -.01em;
      }

      .cls-2 {
        fill: #fff;
      }

      .cls-3 {
        letter-spacing: 0em;
      }

      .cls-4 {
        fill: #29abe2;
        stroke: #000;
        stroke-miterlimit: 10;
      }

      .cls-5 {
        font-family: ReemKufi-Regular, 'Reem Kufi';
        font-size: 43.85px;
      }
    </style>
  </defs>
  <rect class="cls-4" x="7.57" y="9.54" width="84.56" height="126.66" rx="4.68" ry="4.68"/>
  <rect class="cls-4" x="11.3" y="9.54" width="84.56" height="126.66" rx="4.68" ry="4.68"/>
  <rect class="cls-4" x="15.03" y="9.54" width="84.56" height="126.66" rx="4.68" ry="4.68"/>
  <rect class="cls-4" x="18.76" y="9.54" width="84.56" height="126.66" rx="4.68" ry="4.68"/>
  <path class="cls-4" d="M114.8,19.16L43.73,3.15c-3.13-.71-6.25,1.21-6.97,4.27L10.37,119.76c-.72,3.07,1.23,6.12,4.36,6.83l71.07,16.01c3.13.71,6.25-1.21,6.97-4.27l26.39-112.34c.72-3.07-1.23-6.12-4.36-6.83Z"/>
  <rect class="cls-2" x="110.5" y="10.5" width="17" height="29"/>
  <path class="cls-4" d="M134.24,38.81L72.15,1.35c-2.73-1.65-6.32-.82-8,1.86L2.42,101.36c-1.68,2.68-.83,6.19,1.9,7.84l62.09,37.46c2.73,1.65,6.32.82,8-1.86l61.73-98.15c1.68-2.68.83-6.19-1.9-7.84Z"/>
  <rect class="cls-2" x="132" y="28" width="10" height="29"/>
  <path class="cls-4" d="M149.51,72.03L108.89,12.72c-1.79-2.61-5.4-3.31-8.07-1.56L3.08,75.37c-2.67,1.75-3.38,5.29-1.59,7.9l40.62,59.32c1.79,2.61,5.4,3.31,8.07,1.56l97.74-64.21c2.67-1.75,3.38-5.29,1.59-7.9Z"/>
  <path class="cls-4" d="M150.18,100.38l-17.9-69.24c-.79-3.05-3.95-4.9-7.07-4.12L11.13,55.31c-3.11.77-5,3.87-4.21,6.92l17.9,69.24c.79,3.05,3.95,4.9,7.07,4.12l114.09-28.29c3.11-.77,5-3.87,4.21-6.92Z"/>
  <rect class="cls-4" x="38.38" y="21.52" width="82.82" height="129.33" rx="4.68" ry="4.68" transform="translate(165.97 6.39) rotate(90)"/>
  <text class="cls-5" transform="translate(27.03 101.1) scale(1.02 1)"><tspan class="cls-1" x="0" y="0">K</tspan><tspan class="cls-3" x="29.46" y="0">ādo</tspan></text>
</svg>