<?xml version="1.0" encoding="UTF-8"?>
<svg id="Layer_1" data-name="Layer 1" xmlns="http://www.w3.org/2000/svg" viewBox="0 0 151 148">
  <defs>
    <style>
      .cls-1 {
        fill: #8cabec;
      }

      .cls-1, .cls-2, .cls-3, .cls-4, .cls-5, .cls-6, .cls-7, .cls-8, .cls-9 {
        stroke: #000;
        stroke-miterlimit: 10;
      }

      .cls-2 {
        fill: #50abe0;
      }

      .cls-3 {
        fill: #28abd8;
      }

      .cls-4 {
        fill: #78abe8;
      }

      .cls-5 {
        fill: #64abe4;
      }

      .cls-6 {
        fill: #b4abe2;
      }

      .cls-10 {
        letter-spacing: -.02em;
      }

      .cls-7 {
        fill: #29abe2;
      }

      .cls-8 {
        fill: #3cabdc;
      }

      .cls-9 {
        fill: #a0abf0;
      }

      .cls-11 {
        font-family: Constantia, Constantia;
        font-size: 48.99px;
      }
    </style>
  </defs>
  <rect class="cls-3" x="7.57" y="9.54" width="84.56" height="126.66" rx="4.68" ry="4.68"/>
  <rect class="cls-8" x="11.3" y="9.54" width="84.56" height="126.66" rx="4.68" ry="4.68"/>
  <rect class="cls-2" x="15.03" y="9.54" width="84.56" height="126.66" rx="4.68" ry="4.68"/>
  <rect class="cls-5" x="18.76" y="9.54" width="84.56" height="126.66" rx="4.68" ry="4.68"/>
  <path class="cls-4" d="M109.06,22.46c-1.61-1.21-2.64-2.99-2.45-4.88-.01-.09,0-.18-.01-.27L43.73,3.15c-3.13-.71-6.25,1.21-6.97,4.27L10.37,119.76c-.72,3.07,1.23,6.12,4.36,6.83l71.07,16.01c3.13.71,6.25-1.21,6.97-4.27l25.79-109.8c-3.52-1.19-6.86-4.06-9.51-6.06Z"/>
  <path class="cls-1" d="M120.59,56.22c2.6-6.83,4.54-13.7,6.06-20.84.07-.34.2-.65.35-.94L72.15,1.35c-2.73-1.65-6.32-.82-8,1.86L2.42,101.36c-1.68,2.68-.83,6.19,1.9,7.84l62.09,37.46c2.73,1.65,6.32.82,8-1.86l47.42-75.39c-1.87-4.34-3.22-7.97-1.24-13.17Z"/>
  <path class="cls-9" d="M149.51,72.03L108.89,12.72c-1.79-2.61-5.4-3.31-8.07-1.56L3.08,75.37c-2.67,1.75-3.38,5.29-1.59,7.9l40.62,59.32c1.79,2.61,5.4,3.31,8.07,1.56l97.74-64.21c2.67-1.75,3.38-5.29,1.59-7.9Z"/>
  <path class="cls-6" d="M150.18,100.38l-17.9-69.24c-.79-3.05-3.95-4.9-7.07-4.12L11.13,55.31c-3.11.77-5,3.87-4.21,6.92l17.9,69.24c.79,3.05,3.95,4.9,7.07,4.12l114.09-28.29c3.11-.77,5-3.87,4.21-6.92Z"/>
  <rect class="cls-7" x="38.38" y="21.52" width="82.82" height="129.33" rx="4.68" ry="4.68" transform="translate(165.97 6.39) rotate(90)"/>
  <text class="cls-11" transform="translate(25.03 102.81)"><tspan x="0" y="0">Kād</tspan><tspan class="cls-10" x="83.61" y="0">o</tspan></text>
</svg>